<mxfile host="65bd71144e">
    <diagram id="ftux0FwmpLHw2KxXnDP0" name="第 1 页">
        <mxGraphModel dx="968" dy="558" grid="1" gridSize="10" guides="1" tooltips="1" connect="1" arrows="1" fold="1" page="1" pageScale="1" pageWidth="827" pageHeight="1169" math="0" shadow="0">
            <root>
                <mxCell id="0"/>
                <mxCell id="1" parent="0"/>
                <mxCell id="12" style="edgeStyle=none;sketch=1;html=1;exitX=1;exitY=0.5;exitDx=0;exitDy=0;entryX=0;entryY=0.5;entryDx=0;entryDy=0;fontSize=11;" edge="1" parent="1" source="2" target="11">
                    <mxGeometry relative="1" as="geometry"/>
                </mxCell>
                <mxCell id="2" value="jvm层c++实现的类加载器，在Java层面无法看到，输出也只能看到为null" style="rounded=0;whiteSpace=wrap;html=1;fillColor=#dae8fc;strokeColor=#6c8ebf;comic=1;sketch=1;" vertex="1" parent="1">
                    <mxGeometry x="230" y="36.25" width="216" height="47.5" as="geometry"/>
                </mxCell>
                <mxCell id="10" style="edgeStyle=none;sketch=1;html=1;exitX=1;exitY=0.5;exitDx=0;exitDy=0;entryX=0;entryY=0.5;entryDx=0;entryDy=0;" edge="1" parent="1" source="3" target="2">
                    <mxGeometry relative="1" as="geometry"/>
                </mxCell>
                <mxCell id="16" value="加载&lt;br&gt;的类" style="edgeStyle=none;sketch=1;html=1;exitX=1;exitY=0.5;exitDx=0;exitDy=0;entryX=0;entryY=0.5;entryDx=0;entryDy=0;fontSize=11;" edge="1" parent="1" source="3" target="15">
                    <mxGeometry relative="1" as="geometry"/>
                </mxCell>
                <mxCell id="3" value="&lt;span&gt;启动类加载器&lt;br&gt;BootstrapClassLoader&lt;/span&gt;" style="rounded=1;whiteSpace=wrap;html=1;comic=1;fillColor=#ffe6cc;strokeColor=#d79b00;" vertex="1" parent="1">
                    <mxGeometry x="40" y="83.75" width="140" height="40" as="geometry"/>
                </mxCell>
                <mxCell id="7" value="parent" style="edgeStyle=none;sketch=1;html=1;exitX=0.5;exitY=0;exitDx=0;exitDy=0;entryX=0.5;entryY=1;entryDx=0;entryDy=0;" edge="1" parent="1" source="4" target="3">
                    <mxGeometry relative="1" as="geometry"/>
                </mxCell>
                <mxCell id="20" style="edgeStyle=none;sketch=1;html=1;exitX=1;exitY=0.5;exitDx=0;exitDy=0;entryX=0;entryY=0.5;entryDx=0;entryDy=0;fontSize=11;" edge="1" parent="1" source="4" target="19">
                    <mxGeometry relative="1" as="geometry"/>
                </mxCell>
                <mxCell id="4" value="&lt;span&gt;扩展类加载器&lt;br&gt;ExtClassLoader&lt;/span&gt;" style="rounded=1;whiteSpace=wrap;html=1;comic=1;fillColor=#ffe6cc;strokeColor=#d79b00;" vertex="1" parent="1">
                    <mxGeometry x="40" y="190" width="140" height="40" as="geometry"/>
                </mxCell>
                <mxCell id="6" value="parent" style="edgeStyle=none;html=1;exitX=0.5;exitY=0;exitDx=0;exitDy=0;entryX=0.5;entryY=1;entryDx=0;entryDy=0;sketch=1;" edge="1" parent="1" source="5" target="4">
                    <mxGeometry relative="1" as="geometry"/>
                </mxCell>
                <mxCell id="22" style="edgeStyle=none;sketch=1;html=1;exitX=1;exitY=0.5;exitDx=0;exitDy=0;entryX=0;entryY=0.5;entryDx=0;entryDy=0;fontSize=11;" edge="1" parent="1" source="5" target="21">
                    <mxGeometry relative="1" as="geometry"/>
                </mxCell>
                <mxCell id="5" value="&lt;span&gt;应用类加载器&lt;br&gt;AppClassLoader&lt;/span&gt;" style="rounded=1;whiteSpace=wrap;html=1;comic=1;fillColor=#ffe6cc;strokeColor=#d79b00;" vertex="1" parent="1">
                    <mxGeometry x="40" y="280" width="140" height="40" as="geometry"/>
                </mxCell>
                <mxCell id="9" value="parent" style="edgeStyle=none;sketch=1;html=1;exitX=0.5;exitY=0;exitDx=0;exitDy=0;entryX=0.5;entryY=1;entryDx=0;entryDy=0;" edge="1" parent="1" source="8" target="5">
                    <mxGeometry relative="1" as="geometry"/>
                </mxCell>
                <mxCell id="8" value="自定义类加载器" style="rounded=1;whiteSpace=wrap;html=1;comic=1;fillColor=#b0e3e6;strokeColor=#0e8088;" vertex="1" parent="1">
                    <mxGeometry x="40" y="380" width="140" height="40" as="geometry"/>
                </mxCell>
                <mxCell id="14" value="输出" style="edgeStyle=none;sketch=1;html=1;exitX=1;exitY=0.5;exitDx=0;exitDy=0;entryX=0;entryY=0.5;entryDx=0;entryDy=0;fontSize=11;" edge="1" parent="1" source="11" target="13">
                    <mxGeometry relative="1" as="geometry"/>
                </mxCell>
                <mxCell id="11" value="&lt;pre style=&quot;background-color: rgb(255 , 255 , 255) ; color: rgb(8 , 8 , 8) ; font-family: &amp;#34;consolas&amp;#34; , monospace ; font-size: 11px&quot;&gt;&lt;span style=&quot;color: #0033b3&quot;&gt;public class &lt;/span&gt;&lt;span style=&quot;color: #066555&quot;&gt;Main &lt;/span&gt;{&lt;br&gt;    &lt;span style=&quot;color: #0033b3&quot;&gt;public static void &lt;/span&gt;&lt;span style=&quot;color: #795e26&quot;&gt;main&lt;/span&gt;(&lt;span style=&quot;color: #066555&quot;&gt;String&lt;/span&gt;[] args) {&lt;br&gt;        &lt;span style=&quot;color: #066555&quot;&gt;System&lt;/span&gt;.&lt;span style=&quot;color: #871094 ; font-style: italic&quot;&gt;out&lt;/span&gt;.&lt;span style=&quot;color: #795e26&quot;&gt;println&lt;/span&gt;(&lt;span style=&quot;color: #066555&quot;&gt;String&lt;/span&gt;.&lt;span style=&quot;color: #0033b3&quot;&gt;class&lt;/span&gt;.&lt;span style=&quot;color: #795e26&quot;&gt;getClassLoader&lt;/span&gt;());&lt;br&gt;    }&lt;br&gt;}&lt;/pre&gt;" style="rounded=0;whiteSpace=wrap;html=1;fillColor=#ffe6cc;strokeColor=#d79b00;comic=1;sketch=0;align=left;" vertex="1" parent="1">
                    <mxGeometry x="473" y="23.130000000000003" width="354" height="73.75" as="geometry"/>
                </mxCell>
                <mxCell id="13" value="" style="shape=image;imageAspect=0;aspect=fixed;verticalLabelPosition=bottom;verticalAlign=top;comic=1;sketch=0;fontSize=11;image=https://codereaper-image-bed.oss-cn-shenzhen.aliyuncs.com/img/image-20220821231137941.png;imageBorder=default;" vertex="1" parent="1">
                    <mxGeometry x="870" y="32" width="71.34" height="56" as="geometry"/>
                </mxCell>
                <mxCell id="18" style="edgeStyle=none;sketch=1;html=1;exitX=1;exitY=0.5;exitDx=0;exitDy=0;entryX=0;entryY=0.5;entryDx=0;entryDy=0;fontSize=11;" edge="1" parent="1" source="15" target="17">
                    <mxGeometry relative="1" as="geometry"/>
                </mxCell>
                <mxCell id="15" value="&lt;div style=&quot;text-align: left&quot;&gt;①&amp;nbsp;&lt;b&gt;&amp;lt;JAVA_HOME&amp;gt;\lib&lt;/b&gt;路径下部分jar中的类&lt;/div&gt;&lt;div style=&quot;text-align: left&quot;&gt;（&lt;b&gt;rt.jar、tools.jar&lt;/b&gt;等）&lt;/div&gt;&lt;div style=&quot;text-align: left&quot;&gt;&lt;span&gt;②&amp;nbsp;&lt;/span&gt;&lt;span&gt;被-Xbootclasspath参数所指定路径中的类&lt;/span&gt;&lt;/div&gt;" style="rounded=0;whiteSpace=wrap;html=1;fillColor=#ffe6cc;strokeColor=#d79b00;comic=1;sketch=1;" vertex="1" parent="1">
                    <mxGeometry x="230" y="110" width="240" height="50" as="geometry"/>
                </mxCell>
                <mxCell id="17" value="&lt;div style=&quot;text-align: left&quot;&gt;主要加载&lt;b&gt;String、基本类型包装类&lt;/b&gt;等核心类&lt;/div&gt;" style="rounded=0;whiteSpace=wrap;html=1;fillColor=#f8cecc;strokeColor=#b85450;comic=1;sketch=1;" vertex="1" parent="1">
                    <mxGeometry x="500" y="120" width="240" height="30" as="geometry"/>
                </mxCell>
                <mxCell id="19" value="&lt;div style=&quot;text-align: left&quot;&gt;负责加载&lt;/div&gt;&lt;div style=&quot;text-align: left&quot;&gt;①&amp;nbsp;&lt;b&gt;&amp;lt;JAVA_HOME&amp;gt;\lib\ext&lt;/b&gt;目录&lt;/div&gt;&lt;div style=&quot;text-align: left&quot;&gt;②&amp;nbsp;被java.ext.dirs系统变量所指定的路径&lt;/div&gt;&lt;div style=&quot;text-align: left&quot;&gt;中的类&lt;/div&gt;" style="rounded=0;whiteSpace=wrap;html=1;fillColor=#ffe6cc;strokeColor=#d79b00;comic=1;sketch=1;" vertex="1" parent="1">
                    <mxGeometry x="230" y="177.5" width="220" height="65" as="geometry"/>
                </mxCell>
                <mxCell id="24" style="edgeStyle=none;sketch=1;html=1;exitX=1;exitY=0.5;exitDx=0;exitDy=0;entryX=0;entryY=0.5;entryDx=0;entryDy=0;fontSize=11;" edge="1" parent="1" source="21" target="23">
                    <mxGeometry relative="1" as="geometry"/>
                </mxCell>
                <mxCell id="21" value="&lt;div style=&quot;text-align: left&quot;&gt;负责加载用户类路径上的所有类，一般&lt;b&gt;用户编写的类&lt;/b&gt;都是由该加载器的实例进行加载的&lt;/div&gt;" style="rounded=0;whiteSpace=wrap;html=1;fillColor=#ffe6cc;strokeColor=#d79b00;comic=1;sketch=1;" vertex="1" parent="1">
                    <mxGeometry x="230" y="276.88" width="230" height="46.25" as="geometry"/>
                </mxCell>
                <mxCell id="26" style="edgeStyle=none;sketch=1;html=1;exitX=1;exitY=0.5;exitDx=0;exitDy=0;entryX=0;entryY=0.5;entryDx=0;entryDy=0;fontSize=11;" edge="1" parent="1" source="23" target="25">
                    <mxGeometry relative="1" as="geometry"/>
                </mxCell>
                <mxCell id="23" value="&lt;pre style=&quot;background-color: rgb(255 , 255 , 255) ; color: rgb(8 , 8 , 8) ; font-family: &amp;#34;consolas&amp;#34; , monospace ; font-size: 11px&quot;&gt;&lt;pre style=&quot;font-family: &amp;#34;consolas&amp;#34; , monospace&quot;&gt;&lt;span style=&quot;color: #0033b3&quot;&gt;import &lt;/span&gt;&lt;span style=&quot;color: #066555&quot;&gt;sugar.Color&lt;/span&gt;;&lt;br&gt;&lt;span style=&quot;color: #0033b3&quot;&gt;public class &lt;/span&gt;&lt;span style=&quot;color: #066555&quot;&gt;Main &lt;/span&gt;{&lt;br&gt;    &lt;span style=&quot;color: #0033b3&quot;&gt;public static void &lt;/span&gt;&lt;span style=&quot;color: #795e26&quot;&gt;main&lt;/span&gt;(&lt;span style=&quot;color: #066555&quot;&gt;String&lt;/span&gt;[] args) {&lt;br&gt;        &lt;span style=&quot;color: #066555&quot;&gt;System&lt;/span&gt;.&lt;span style=&quot;color: #871094 ; font-style: italic&quot;&gt;out&lt;/span&gt;.&lt;span style=&quot;color: #795e26&quot;&gt;println&lt;/span&gt;(&lt;span style=&quot;color: #066555&quot;&gt;Color&lt;/span&gt;.&lt;span style=&quot;color: #0033b3&quot;&gt;class&lt;/span&gt;.&lt;span style=&quot;color: #795e26&quot;&gt;getClassLoader&lt;/span&gt;());&lt;br&gt;    }&lt;br&gt;}&lt;/pre&gt;&lt;/pre&gt;" style="rounded=0;whiteSpace=wrap;html=1;fillColor=#ffe6cc;strokeColor=#d79b00;comic=1;sketch=0;align=left;" vertex="1" parent="1">
                    <mxGeometry x="490" y="256.57" width="349" height="86.88" as="geometry"/>
                </mxCell>
                <mxCell id="25" value="" style="shape=image;imageAspect=0;aspect=fixed;verticalLabelPosition=bottom;verticalAlign=top;comic=1;sketch=0;fontSize=11;image=https://codereaper-image-bed.oss-cn-shenzhen.aliyuncs.com/img/image-20220821232010542.png;imageBorder=default;" vertex="1" parent="1">
                    <mxGeometry x="870" y="270.86" width="226.22" height="58.3" as="geometry"/>
                </mxCell>
                <mxCell id="27" value="&lt;div style=&quot;text-align: left&quot;&gt;类加载器的继承关系&lt;/div&gt;" style="rounded=0;whiteSpace=wrap;html=1;fillColor=#f8cecc;strokeColor=#b85450;comic=1;sketch=0;" vertex="1" parent="1">
                    <mxGeometry x="353" y="450" width="122" height="36.25" as="geometry"/>
                </mxCell>
                <mxCell id="30" style="edgeStyle=none;sketch=1;html=1;exitX=1;exitY=0.5;exitDx=0;exitDy=0;entryX=0;entryY=0.5;entryDx=0;entryDy=0;fontSize=11;" edge="1" parent="1" source="28" target="29">
                    <mxGeometry relative="1" as="geometry"/>
                </mxCell>
                <mxCell id="34" style="edgeStyle=none;sketch=1;html=1;exitX=1;exitY=0.5;exitDx=0;exitDy=0;entryX=0;entryY=0.5;entryDx=0;entryDy=0;fontSize=11;" edge="1" parent="1" source="28" target="33">
                    <mxGeometry relative="1" as="geometry"/>
                </mxCell>
                <mxCell id="28" value="&lt;div style=&quot;text-align: left&quot;&gt;类加载器&lt;/div&gt;" style="rounded=0;whiteSpace=wrap;html=1;fillColor=#ffe6cc;strokeColor=#d79b00;comic=1;sketch=0;" vertex="1" parent="1">
                    <mxGeometry x="40" y="650" width="70" height="36.25" as="geometry"/>
                </mxCell>
                <mxCell id="32" style="edgeStyle=none;sketch=1;html=1;exitX=1;exitY=0.5;exitDx=0;exitDy=0;entryX=0;entryY=0.5;entryDx=0;entryDy=0;fontSize=11;" edge="1" parent="1" source="29" target="31">
                    <mxGeometry relative="1" as="geometry"/>
                </mxCell>
                <mxCell id="29" value="&lt;div style=&quot;text-align: left&quot;&gt;&lt;span style=&quot;text-align: center&quot;&gt;ExtClassLoader&lt;/span&gt;&lt;br&gt;&lt;/div&gt;" style="rounded=0;whiteSpace=wrap;html=1;fillColor=#dae8fc;strokeColor=#6c8ebf;comic=1;sketch=0;" vertex="1" parent="1">
                    <mxGeometry x="170" y="571" width="110" height="26.25" as="geometry"/>
                </mxCell>
                <mxCell id="31" value="" style="shape=image;imageAspect=0;aspect=fixed;verticalLabelPosition=bottom;verticalAlign=top;comic=1;sketch=0;fontSize=11;image=https://codereaper-image-bed.oss-cn-shenzhen.aliyuncs.com/img/image-20220821232405616.png;imageBorder=default;" vertex="1" parent="1">
                    <mxGeometry x="330" y="500" width="214.04" height="170" as="geometry"/>
                </mxCell>
                <mxCell id="36" style="edgeStyle=none;sketch=1;html=1;exitX=1;exitY=0.5;exitDx=0;exitDy=0;entryX=0;entryY=0.5;entryDx=0;entryDy=0;fontSize=11;" edge="1" parent="1" source="33" target="35">
                    <mxGeometry relative="1" as="geometry"/>
                </mxCell>
                <mxCell id="33" value="&lt;div style=&quot;text-align: left&quot;&gt;&lt;span style=&quot;text-align: center&quot;&gt;AppClassLoader&lt;/span&gt;&lt;br&gt;&lt;/div&gt;" style="rounded=0;whiteSpace=wrap;html=1;fillColor=#dae8fc;strokeColor=#6c8ebf;comic=1;sketch=0;" vertex="1" parent="1">
                    <mxGeometry x="170" y="751.01" width="110" height="26.25" as="geometry"/>
                </mxCell>
                <mxCell id="35" value="" style="shape=image;imageAspect=0;aspect=fixed;verticalLabelPosition=bottom;verticalAlign=top;comic=1;sketch=0;fontSize=11;image=https://codereaper-image-bed.oss-cn-shenzhen.aliyuncs.com/img/image-20220821232452790.png;imageBorder=default;" vertex="1" parent="1">
                    <mxGeometry x="330" y="679.28" width="213.15" height="169.72" as="geometry"/>
                </mxCell>
                <mxCell id="37" value="&lt;div style=&quot;text-align: left&quot;&gt;可以发现这两个类的继承关系是一样的，都是继承于URLClassLoader，因此两者的主要区别在于：&lt;/div&gt;&lt;div style=&quot;text-align: left&quot;&gt;① 负责加载的类的路径不同&lt;/div&gt;&lt;div style=&quot;text-align: left&quot;&gt;② parent类加载器不同&lt;/div&gt;&lt;div style=&quot;text-align: left&quot;&gt;&amp;nbsp; - AppClassLoader的parent是ExtClassLoader&lt;/div&gt;&lt;div style=&quot;text-align: left&quot;&gt;&amp;nbsp; - ExtClassLoader的parent是BootStrapClassLoader&lt;/div&gt;" style="rounded=0;whiteSpace=wrap;html=1;fillColor=#ffe6cc;strokeColor=#d79b00;comic=1;sketch=1;" vertex="1" parent="1">
                    <mxGeometry x="560" y="536.75" width="290" height="113.25" as="geometry"/>
                </mxCell>
                <mxCell id="38" value="&lt;div style=&quot;text-align: left&quot;&gt;类加载逻辑&lt;/div&gt;" style="rounded=0;whiteSpace=wrap;html=1;fillColor=#f8cecc;strokeColor=#b85450;comic=1;sketch=0;" vertex="1" parent="1">
                    <mxGeometry x="353" y="890" width="122" height="36.25" as="geometry"/>
                </mxCell>
                <mxCell id="59" style="rounded=0;sketch=1;html=1;exitX=1;exitY=0.5;exitDx=0;exitDy=0;entryX=0;entryY=0.5;entryDx=0;entryDy=0;fontSize=12;" edge="1" parent="1" source="39" target="44">
                    <mxGeometry relative="1" as="geometry"/>
                </mxCell>
                <mxCell id="39" value="&lt;pre style=&quot;background-color: rgb(255 , 255 , 255) ; font-family: &amp;#34;consolas&amp;#34; , monospace ; font-size: 11px&quot;&gt;&lt;pre style=&quot;font-family: &amp;#34;consolas&amp;#34; , monospace&quot;&gt;&lt;span style=&quot;color: rgb(0 , 51 , 179)&quot;&gt;protected &lt;/span&gt;&lt;span style=&quot;color: rgb(6 , 101 , 85)&quot;&gt;Class&lt;/span&gt;&lt;font color=&quot;#080808&quot;&gt;&amp;lt;?&amp;gt; &lt;/font&gt;&lt;span style=&quot;color: rgb(121 , 94 , 38)&quot;&gt;loadClass&lt;/span&gt;&lt;font color=&quot;#080808&quot;&gt;(&lt;/font&gt;&lt;span style=&quot;color: rgb(6 , 101 , 85)&quot;&gt;String &lt;/span&gt;&lt;font color=&quot;#080808&quot;&gt;name, &lt;/font&gt;&lt;span style=&quot;color: rgb(0 , 51 , 179)&quot;&gt;boolean &lt;/span&gt;&lt;font color=&quot;#080808&quot;&gt;resolve)&lt;br&gt;    &lt;/font&gt;&lt;span style=&quot;color: rgb(0 , 51 , 179)&quot;&gt;throws &lt;/span&gt;&lt;span style=&quot;color: rgb(6 , 101 , 85)&quot;&gt;ClassNotFoundException&lt;br&gt;&lt;/span&gt;&lt;font color=&quot;#080808&quot;&gt;{&lt;br&gt;    &lt;/font&gt;&lt;span style=&quot;color: rgb(0 , 51 , 179)&quot;&gt;synchronized &lt;/span&gt;&lt;font color=&quot;#080808&quot;&gt;(&lt;/font&gt;&lt;span style=&quot;color: rgb(121 , 94 , 38)&quot;&gt;getClassLoadingLock&lt;/span&gt;&lt;font color=&quot;#080808&quot;&gt;(name)) {&lt;br&gt;        &lt;/font&gt;&lt;span style=&quot;color: rgb(140 , 140 , 140) ; font-style: italic&quot;&gt;// First, check if the class has already been loaded&lt;br&gt;&lt;/span&gt;&lt;span style=&quot;color: rgb(140 , 140 , 140) ; font-style: italic&quot;&gt;        &lt;/span&gt;&lt;span style=&quot;color: rgb(6 , 101 , 85)&quot;&gt;Class&lt;/span&gt;&lt;font color=&quot;#080808&quot;&gt;&amp;lt;?&amp;gt; c = &lt;/font&gt;&lt;span style=&quot;color: rgb(121 , 94 , 38)&quot;&gt;findLoadedClass&lt;/span&gt;&lt;font color=&quot;#080808&quot;&gt;(name);&lt;br&gt;        &lt;/font&gt;&lt;span style=&quot;color: rgb(0 , 51 , 179)&quot;&gt;if &lt;/span&gt;&lt;font color=&quot;#080808&quot;&gt;(c == &lt;/font&gt;&lt;span style=&quot;color: rgb(0 , 51 , 179)&quot;&gt;null&lt;/span&gt;&lt;font color=&quot;#080808&quot;&gt;) {&lt;br&gt;            &lt;/font&gt;&lt;span style=&quot;color: rgb(0 , 51 , 179)&quot;&gt;try &lt;/span&gt;&lt;font color=&quot;#080808&quot;&gt;{&lt;br&gt;                &lt;/font&gt;&lt;span style=&quot;color: rgb(0 , 51 , 179)&quot;&gt;if &lt;/span&gt;&lt;font color=&quot;#080808&quot;&gt;(&lt;/font&gt;&lt;span style=&quot;color: rgb(135 , 16 , 148)&quot;&gt;parent &lt;/span&gt;&lt;font color=&quot;#080808&quot;&gt;!= &lt;/font&gt;&lt;span style=&quot;color: rgb(0 , 51 , 179)&quot;&gt;null&lt;/span&gt;&lt;font color=&quot;#080808&quot;&gt;) {&lt;br&gt;                    c = &lt;/font&gt;&lt;span style=&quot;color: rgb(135 , 16 , 148)&quot;&gt;parent&lt;/span&gt;&lt;font color=&quot;#080808&quot;&gt;.&lt;/font&gt;&lt;span style=&quot;color: rgb(121 , 94 , 38)&quot;&gt;loadClass&lt;/span&gt;&lt;font color=&quot;#080808&quot;&gt;(name, &lt;/font&gt;&lt;span style=&quot;color: rgb(0 , 51 , 179)&quot;&gt;false&lt;/span&gt;&lt;font color=&quot;#080808&quot;&gt;);&lt;br&gt;                } &lt;/font&gt;&lt;span style=&quot;color: rgb(0 , 51 , 179)&quot;&gt;else &lt;/span&gt;&lt;font color=&quot;#080808&quot;&gt;{&lt;br&gt;                    c = &lt;/font&gt;&lt;span style=&quot;color: rgb(121 , 94 , 38)&quot;&gt;findBootstrapClassOrNull&lt;/span&gt;&lt;font color=&quot;#080808&quot;&gt;(name);&lt;br&gt;                }&lt;br&gt;            } &lt;/font&gt;&lt;span style=&quot;color: rgb(0 , 51 , 179)&quot;&gt;catch &lt;/span&gt;&lt;font color=&quot;#080808&quot;&gt;(&lt;/font&gt;&lt;span style=&quot;color: rgb(6 , 101 , 85)&quot;&gt;ClassNotFoundException &lt;/span&gt;&lt;font color=&quot;#080808&quot;&gt;e) {...}&lt;br&gt;&lt;br&gt;            &lt;/font&gt;&lt;span style=&quot;color: rgb(0 , 51 , 179)&quot;&gt;if &lt;/span&gt;&lt;font color=&quot;#080808&quot;&gt;(c == &lt;/font&gt;&lt;span style=&quot;color: rgb(0 , 51 , 179)&quot;&gt;null&lt;/span&gt;&lt;font color=&quot;#080808&quot;&gt;) {&lt;br&gt;                &lt;/font&gt;&lt;span style=&quot;color: rgb(140 , 140 , 140) ; font-style: italic&quot;&gt;// If still not found, then invoke findClass in order&lt;br&gt;&lt;/span&gt;&lt;span style=&quot;color: rgb(140 , 140 , 140) ; font-style: italic&quot;&gt;                // to find the class.&lt;/span&gt;&lt;font color=&quot;#080808&quot;&gt;&lt;br&gt;                c = &lt;/font&gt;&lt;span style=&quot;color: rgb(121 , 94 , 38)&quot;&gt;findClass&lt;/span&gt;&lt;font color=&quot;#080808&quot;&gt;(name);&lt;br&gt;                ...&lt;br&gt;            }&lt;br&gt;        }&lt;br&gt;        &lt;/font&gt;&lt;font color=&quot;#0033b3&quot;&gt;...&lt;/font&gt;&lt;font color=&quot;#080808&quot;&gt;&lt;br&gt;        &lt;/font&gt;&lt;span style=&quot;color: rgb(0 , 51 , 179)&quot;&gt;return &lt;/span&gt;&lt;font color=&quot;#080808&quot;&gt;c;&lt;br&gt;    }&lt;br&gt;}&lt;/font&gt;&lt;/pre&gt;&lt;/pre&gt;" style="rounded=0;whiteSpace=wrap;html=1;fillColor=#ffe6cc;strokeColor=#d79b00;comic=1;sketch=0;align=left;" vertex="1" parent="1">
                    <mxGeometry x="40" y="980" width="420" height="350" as="geometry"/>
                </mxCell>
                <mxCell id="40" value="ClassLoader#loadClass()" style="rounded=0;whiteSpace=wrap;html=1;fillColor=#d5e8d4;strokeColor=#82b366;comic=1;sketch=0;align=left;" vertex="1" parent="1">
                    <mxGeometry x="40" y="956.25" width="172" height="23.75" as="geometry"/>
                </mxCell>
                <mxCell id="41" value="&lt;font color=&quot;#6262fc&quot;&gt;&lt;span style=&quot;font-size: 10px&quot;&gt;先从缓存中找&lt;/span&gt;&lt;/font&gt;" style="rounded=0;whiteSpace=wrap;html=1;fillColor=none;strokeColor=none;comic=1;align=left;sketch=1;" vertex="1" parent="1">
                    <mxGeometry x="310" y="1050" width="90" height="20" as="geometry"/>
                </mxCell>
                <mxCell id="42" value="&lt;font color=&quot;#6262fc&quot;&gt;&lt;span style=&quot;font-size: 10px&quot;&gt;委托给parent类加载器加载&lt;/span&gt;&lt;/font&gt;" style="rounded=0;whiteSpace=wrap;html=1;fillColor=none;strokeColor=none;comic=1;align=left;sketch=1;" vertex="1" parent="1">
                    <mxGeometry x="370" y="1090" width="90" height="30" as="geometry"/>
                </mxCell>
                <mxCell id="43" value="&lt;font color=&quot;#6262fc&quot;&gt;&lt;span style=&quot;font-size: 10px&quot;&gt;调用自己的findClass加载&lt;/span&gt;&lt;/font&gt;" style="rounded=0;whiteSpace=wrap;html=1;fillColor=none;strokeColor=none;comic=1;align=left;sketch=1;" vertex="1" parent="1">
                    <mxGeometry x="270" y="1220" width="120" height="20" as="geometry"/>
                </mxCell>
                <mxCell id="58" value="" style="group" vertex="1" connectable="0" parent="1">
                    <mxGeometry x="500" y="1005" width="307" height="300" as="geometry"/>
                </mxCell>
                <mxCell id="44" value="&lt;div style=&quot;text-align: left&quot;&gt;&lt;br&gt;&lt;/div&gt;" style="rounded=0;whiteSpace=wrap;html=1;fillColor=#dae8fc;strokeColor=#6c8ebf;comic=1;sketch=0;" vertex="1" parent="58">
                    <mxGeometry width="307" height="300" as="geometry"/>
                </mxCell>
                <mxCell id="45" value="&lt;div style=&quot;text-align: left&quot;&gt;返回class&lt;/div&gt;" style="rounded=0;whiteSpace=wrap;html=1;comic=1;sketch=0;fillColor=#f8cecc;strokeColor=#b85450;" vertex="1" parent="58">
                    <mxGeometry x="220" y="246.5" width="70" height="27" as="geometry"/>
                </mxCell>
                <mxCell id="46" value="开始" style="rounded=1;whiteSpace=wrap;html=1;comic=1;fillColor=#e1d5e7;strokeColor=#9673a6;" vertex="1" parent="58">
                    <mxGeometry x="80" y="15" width="49" height="30" as="geometry"/>
                </mxCell>
                <mxCell id="49" value="是" style="edgeStyle=orthogonalEdgeStyle;sketch=1;html=1;exitX=1;exitY=0.5;exitDx=0;exitDy=0;entryX=0.5;entryY=0;entryDx=0;entryDy=0;fontSize=12;rounded=0;" edge="1" parent="58" source="47" target="45">
                    <mxGeometry x="-0.5198" relative="1" as="geometry">
                        <mxPoint as="offset"/>
                    </mxGeometry>
                </mxCell>
                <mxCell id="47" value="&lt;font style=&quot;font-size: 12px&quot;&gt;当前类加载器是否已加载该类?&lt;/font&gt;" style="rhombus;whiteSpace=wrap;html=1;comic=1;sketch=0;fontSize=11;fillColor=#ffe6cc;strokeColor=#d79b00;" vertex="1" parent="58">
                    <mxGeometry x="49.5" y="65" width="110" height="50" as="geometry"/>
                </mxCell>
                <mxCell id="48" style="edgeStyle=none;sketch=1;html=1;exitX=0.5;exitY=1;exitDx=0;exitDy=0;entryX=0.5;entryY=0;entryDx=0;entryDy=0;fontSize=12;" edge="1" parent="58" source="46" target="47">
                    <mxGeometry relative="1" as="geometry"/>
                </mxCell>
                <mxCell id="50" value="&lt;div style=&quot;text-align: left&quot;&gt;委托parent加载器加载&lt;/div&gt;" style="rounded=0;whiteSpace=wrap;html=1;comic=1;sketch=0;" vertex="1" parent="58">
                    <mxGeometry x="39.129999999999995" y="135" width="130.75" height="30" as="geometry"/>
                </mxCell>
                <mxCell id="51" value="否" style="edgeStyle=none;sketch=1;html=1;exitX=0.5;exitY=1;exitDx=0;exitDy=0;entryX=0.5;entryY=0;entryDx=0;entryDy=0;fontSize=12;" edge="1" parent="58" source="47" target="50">
                    <mxGeometry x="-0.3335" y="16" relative="1" as="geometry">
                        <mxPoint as="offset"/>
                    </mxGeometry>
                </mxCell>
                <mxCell id="54" value="是" style="edgeStyle=orthogonalEdgeStyle;sketch=1;html=1;exitX=1;exitY=0.5;exitDx=0;exitDy=0;entryX=0.5;entryY=0;entryDx=0;entryDy=0;fontSize=12;rounded=0;" edge="1" parent="58" source="52" target="45">
                    <mxGeometry x="-0.1136" relative="1" as="geometry">
                        <mxPoint as="offset"/>
                    </mxGeometry>
                </mxCell>
                <mxCell id="52" value="&lt;font style=&quot;font-size: 12px&quot;&gt;parent加载成功?&lt;/font&gt;" style="rhombus;whiteSpace=wrap;html=1;comic=1;sketch=0;fontSize=11;fillColor=#ffe6cc;strokeColor=#d79b00;" vertex="1" parent="58">
                    <mxGeometry x="49.5" y="186" width="110" height="39" as="geometry"/>
                </mxCell>
                <mxCell id="53" style="edgeStyle=none;sketch=1;html=1;exitX=0.5;exitY=1;exitDx=0;exitDy=0;entryX=0.5;entryY=0;entryDx=0;entryDy=0;fontSize=12;" edge="1" parent="58" source="50" target="52">
                    <mxGeometry relative="1" as="geometry"/>
                </mxCell>
                <mxCell id="57" style="edgeStyle=none;sketch=1;html=1;exitX=1;exitY=0.5;exitDx=0;exitDy=0;entryX=0;entryY=0.5;entryDx=0;entryDy=0;fontSize=12;" edge="1" parent="58" source="55" target="45">
                    <mxGeometry relative="1" as="geometry"/>
                </mxCell>
                <mxCell id="55" value="&lt;div style=&quot;text-align: left&quot;&gt;调用&lt;b&gt;自己的findClass&lt;/b&gt;进行加载&lt;/div&gt;" style="rounded=0;whiteSpace=wrap;html=1;comic=1;sketch=0;" vertex="1" parent="58">
                    <mxGeometry x="16.75999999999999" y="245" width="175.49" height="30" as="geometry"/>
                </mxCell>
                <mxCell id="56" value="否" style="edgeStyle=none;sketch=1;html=1;exitX=0.5;exitY=1;exitDx=0;exitDy=0;entryX=0.5;entryY=0;entryDx=0;entryDy=0;fontSize=12;" edge="1" parent="58" source="52" target="55">
                    <mxGeometry x="-0.3038" y="15" relative="1" as="geometry">
                        <mxPoint as="offset"/>
                    </mxGeometry>
                </mxCell>
                <mxCell id="60" value="&lt;div style=&quot;text-align: left&quot;&gt;其中在findClass方法中，需要真正将读取到的&lt;b&gt;byte[]加载成内存中的类&lt;/b&gt;，需要调用&lt;b&gt;defineClass&lt;/b&gt;这个ClassLoader类的方法，其底层会调用defineClass1或defineClass2这两个c++实现的native方法进行真正的类加载&lt;/div&gt;" style="rounded=0;whiteSpace=wrap;html=1;fillColor=#ffe6cc;strokeColor=#d79b00;comic=1;sketch=1;" vertex="1" parent="1">
                    <mxGeometry x="500" y="1320" width="310.5" height="70" as="geometry"/>
                </mxCell>
                <mxCell id="63" style="edgeStyle=none;rounded=0;sketch=1;html=1;exitX=0.5;exitY=1;exitDx=0;exitDy=0;entryX=0.5;entryY=0;entryDx=0;entryDy=0;fontSize=12;" edge="1" parent="1" source="61" target="62">
                    <mxGeometry relative="1" as="geometry"/>
                </mxCell>
                <mxCell id="61" value="&lt;div style=&quot;text-align: left&quot;&gt;这个使用ClassLoader#loadClass类加载的过程就是所谓的&lt;b&gt;双亲委派机制&lt;/b&gt;&lt;/div&gt;" style="rounded=0;whiteSpace=wrap;html=1;fillColor=#ffe6cc;strokeColor=#d79b00;comic=1;sketch=1;" vertex="1" parent="1">
                    <mxGeometry x="827" y="1040" width="241" height="50" as="geometry"/>
                </mxCell>
                <mxCell id="62" value="&lt;div&gt;优点：&lt;/div&gt;&lt;div&gt;①&amp;nbsp;避免类重复加载&lt;/div&gt;&lt;div&gt;②&amp;nbsp;避免核心类篡改&lt;/div&gt;" style="rounded=0;whiteSpace=wrap;html=1;fillColor=#d5e8d4;strokeColor=#82b366;comic=1;sketch=1;align=left;" vertex="1" parent="1">
                    <mxGeometry x="827" y="1115" width="121" height="50" as="geometry"/>
                </mxCell>
                <mxCell id="66" style="edgeStyle=none;rounded=0;sketch=1;html=1;exitX=1;exitY=0.5;exitDx=0;exitDy=0;entryX=0;entryY=0.5;entryDx=0;entryDy=0;fontSize=12;" edge="1" parent="1" source="64" target="65">
                    <mxGeometry relative="1" as="geometry"/>
                </mxCell>
                <mxCell id="73" style="edgeStyle=none;rounded=0;sketch=1;html=1;exitX=1;exitY=0.5;exitDx=0;exitDy=0;entryX=0;entryY=0.5;entryDx=0;entryDy=0;fontSize=12;" edge="1" parent="1" source="64" target="72">
                    <mxGeometry relative="1" as="geometry"/>
                </mxCell>
                <mxCell id="64" value="&lt;div style=&quot;text-align: left&quot;&gt;自定义类加载器&lt;/div&gt;" style="rounded=0;whiteSpace=wrap;html=1;fillColor=#ffe6cc;strokeColor=#d79b00;comic=1;sketch=0;" vertex="1" parent="1">
                    <mxGeometry x="40" y="1516.51" width="100" height="36.25" as="geometry"/>
                </mxCell>
                <mxCell id="68" value="不打破&lt;br&gt;双亲委派" style="edgeStyle=none;rounded=0;sketch=1;html=1;exitX=1;exitY=0.5;exitDx=0;exitDy=0;entryX=0;entryY=0.5;entryDx=0;entryDy=0;fontSize=12;" edge="1" parent="1" source="65" target="67">
                    <mxGeometry relative="1" as="geometry"/>
                </mxCell>
                <mxCell id="70" value="打破&lt;br&gt;双亲委派" style="edgeStyle=none;rounded=0;sketch=1;html=1;exitX=1;exitY=0.5;exitDx=0;exitDy=0;entryX=0;entryY=0.5;entryDx=0;entryDy=0;fontSize=12;" edge="1" parent="1" source="65" target="69">
                    <mxGeometry relative="1" as="geometry"/>
                </mxCell>
                <mxCell id="65" value="&lt;div style=&quot;text-align: left&quot;&gt;如何实现&lt;/div&gt;" style="rounded=0;whiteSpace=wrap;html=1;fillColor=#b0e3e6;strokeColor=#0e8088;comic=1;sketch=0;" vertex="1" parent="1">
                    <mxGeometry x="200" y="1463.51" width="70" height="33" as="geometry"/>
                </mxCell>
                <mxCell id="71" value="基础上" style="edgeStyle=none;rounded=0;sketch=1;html=1;exitX=0.5;exitY=1;exitDx=0;exitDy=0;entryX=0.5;entryY=0;entryDx=0;entryDy=0;fontSize=12;" edge="1" parent="1" source="67" target="69">
                    <mxGeometry relative="1" as="geometry"/>
                </mxCell>
                <mxCell id="67" value="&lt;div style=&quot;text-align: left&quot;&gt;①&amp;nbsp;&lt;b&gt;继承ClassLoader类&lt;/b&gt;&lt;/div&gt;&lt;div style=&quot;text-align: left&quot;&gt;② 实现自己的&lt;b&gt;findClass方法&lt;/b&gt;&lt;/div&gt;" style="rounded=0;whiteSpace=wrap;html=1;fillColor=#ffe6cc;strokeColor=#d79b00;comic=1;sketch=1;" vertex="1" parent="1">
                    <mxGeometry x="360" y="1410" width="167" height="40" as="geometry"/>
                </mxCell>
                <mxCell id="69" value="&lt;div style=&quot;text-align: left&quot;&gt;③ &lt;b&gt;重写loadClass方法&lt;/b&gt;覆盖原ClassLoader#loadClass()&lt;/div&gt;" style="rounded=0;whiteSpace=wrap;html=1;fillColor=#ffe6cc;strokeColor=#d79b00;comic=1;sketch=1;" vertex="1" parent="1">
                    <mxGeometry x="360" y="1500" width="167" height="40" as="geometry"/>
                </mxCell>
                <mxCell id="75" style="edgeStyle=none;rounded=0;sketch=1;html=1;exitX=1;exitY=0.5;exitDx=0;exitDy=0;entryX=0;entryY=0.5;entryDx=0;entryDy=0;fontSize=11;" edge="1" parent="1" source="72" target="74">
                    <mxGeometry relative="1" as="geometry"/>
                </mxCell>
                <mxCell id="72" value="&lt;div style=&quot;text-align: left&quot;&gt;为什么自定义的类加载器的parent是AppClassLoader?&lt;/div&gt;" style="rounded=0;whiteSpace=wrap;html=1;fillColor=#dae8fc;strokeColor=#6c8ebf;comic=1;sketch=0;" vertex="1" parent="1">
                    <mxGeometry x="200" y="1587.76" width="150" height="40" as="geometry"/>
                </mxCell>
                <mxCell id="74" value="&lt;div style=&quot;text-align: left ; font-size: 11px&quot;&gt;&lt;pre style=&quot;background-color: rgb(255 , 255 , 255) ; color: rgb(8 , 8 , 8) ; font-family: &amp;#34;consolas&amp;#34; , monospace ; font-size: 11px&quot;&gt;&lt;span style=&quot;color: #0033b3&quot;&gt;protected &lt;/span&gt;&lt;span style=&quot;color: #795e26&quot;&gt;ClassLoader&lt;/span&gt;() {&lt;br&gt;    &lt;span style=&quot;color: #0033b3&quot;&gt;this&lt;/span&gt;(&lt;span style=&quot;font-style: italic&quot;&gt;checkCreateClassLoader&lt;/span&gt;(), &lt;span style=&quot;font-style: italic&quot;&gt;getSystemClassLoader&lt;/span&gt;());&lt;br&gt;}&lt;/pre&gt;&lt;pre style=&quot;background-color: rgb(255 , 255 , 255) ; font-family: &amp;#34;consolas&amp;#34; , monospace ; font-size: 11px&quot;&gt;&lt;pre style=&quot;font-family: &amp;#34;consolas&amp;#34; , monospace&quot;&gt;&lt;span style=&quot;color: rgb(0 , 51 , 179)&quot;&gt;private &lt;/span&gt;&lt;span style=&quot;color: rgb(121 , 94 , 38)&quot;&gt;ClassLoader&lt;/span&gt;&lt;font color=&quot;#080808&quot;&gt;(&lt;/font&gt;&lt;span style=&quot;color: rgb(6 , 101 , 85)&quot;&gt;Void &lt;/span&gt;&lt;font color=&quot;#080808&quot;&gt;unused, &lt;/font&gt;&lt;span style=&quot;color: rgb(6 , 101 , 85)&quot;&gt;ClassLoader &lt;/span&gt;&lt;font color=&quot;#080808&quot;&gt;parent) {&lt;br&gt;    &lt;/font&gt;&lt;span style=&quot;color: rgb(0 , 51 , 179)&quot;&gt;this&lt;/span&gt;&lt;font color=&quot;#080808&quot;&gt;.&lt;/font&gt;&lt;span style=&quot;color: rgb(135 , 16 , 148)&quot;&gt;parent &lt;/span&gt;&lt;font color=&quot;#080808&quot;&gt;= parent;&lt;br&gt;    &lt;/font&gt;&lt;font color=&quot;#0033b3&quot;&gt;...&lt;/font&gt;&lt;font color=&quot;#080808&quot;&gt;&lt;br&gt;}&lt;/font&gt;&lt;/pre&gt;&lt;/pre&gt;&lt;/div&gt;" style="rounded=0;whiteSpace=wrap;html=1;fillColor=#ffe6cc;strokeColor=#d79b00;comic=1;sketch=0;" vertex="1" parent="1">
                    <mxGeometry x="380" y="1552.76" width="360" height="110" as="geometry"/>
                </mxCell>
                <mxCell id="76" value="&lt;div style=&quot;text-align: left&quot;&gt;ClassLoader的默认构造函数中会：&lt;/div&gt;&lt;div style=&quot;text-align: left&quot;&gt;① 获取系统类加载器(AppClassLoader实例)&lt;/div&gt;&lt;div style=&quot;text-align: left&quot;&gt;② 设置为当前类加载器的parent&lt;/div&gt;" style="rounded=0;whiteSpace=wrap;html=1;fillColor=#ffe6cc;strokeColor=#d79b00;comic=1;sketch=1;" vertex="1" parent="1">
                    <mxGeometry x="750" y="1581.64" width="240" height="52.24" as="geometry"/>
                </mxCell>
            </root>
        </mxGraphModel>
    </diagram>
</mxfile>